<svg width="55" height="55" viewBox="0 0 55 55" fill="none" xmlns="http://www.w3.org/2000/svg">
<path fill-rule="evenodd" clip-rule="evenodd" d="M38.3854 4.5835V8.1585C44.5729 8.73141 47.575 12.421 48.0333 17.8981C48.1021 18.5397 47.5521 19.1127 46.8875 19.1127H8.1125C7.47083 19.1127 6.92083 18.5627 6.96666 17.8981C7.425 12.421 10.4271 8.73141 16.6146 8.1585V4.5835C16.6146 3.64391 17.3937 2.86475 18.3333 2.86475C19.2729 2.86475 20.0521 3.64391 20.0521 4.5835V8.021H34.9479V4.5835C34.9479 3.64391 35.7271 2.86475 36.6667 2.86475C37.6062 2.86475 38.3854 3.64391 38.3854 4.5835ZM9.16667 22.5498H45.8333C47.0938 22.5498 48.125 23.5811 48.125 24.8415V38.9581C48.125 45.8331 44.6875 50.4165 36.6667 50.4165H18.3333C10.3125 50.4165 6.875 45.8331 6.875 38.9581V24.8415C6.875 23.5811 7.90625 22.5498 9.16667 22.5498ZM20.9917 41.8278C21.0299 41.7947 21.0681 41.7616 21.1063 41.7311C21.5188 41.2956 21.7708 40.6998 21.7708 40.104C21.7708 39.5081 21.5188 38.9123 21.1063 38.4769L20.7625 38.2019C20.625 38.1102 20.4875 38.0415 20.35 37.9956C20.2125 37.9269 20.075 37.8811 19.9375 37.8581C19.4792 37.7665 19.0208 37.8123 18.6083 37.9956C18.3104 38.1102 18.0813 38.2706 17.8521 38.4769C17.4396 38.9123 17.1875 39.5081 17.1875 40.104C17.1875 40.6998 17.4396 41.2956 17.8521 41.7311C18.0813 41.9373 18.3104 42.0977 18.6083 42.2123C18.8833 42.3269 19.1813 42.3956 19.4792 42.3956C19.6215 42.3956 19.7458 42.3776 19.8841 42.3575C19.9017 42.355 19.9194 42.3524 19.9375 42.3498C20.075 42.3269 20.2125 42.2811 20.35 42.2123C20.4875 42.1665 20.625 42.0977 20.7625 42.0061C20.8389 41.9602 20.9153 41.894 20.9917 41.8278ZM19.4792 34.3748C20.075 34.3748 20.6708 34.1227 21.1063 33.7102C21.5188 33.2748 21.7708 32.679 21.7708 32.0831C21.7708 31.4873 21.5188 30.8915 21.1063 30.4561C20.9 30.2498 20.6479 30.0894 20.35 29.9748C19.5021 29.6081 18.4938 29.8144 17.8521 30.4561C17.4396 30.8915 17.1875 31.4873 17.1875 32.0831C17.1875 32.679 17.4396 33.2748 17.8521 33.7102C18.2875 34.1227 18.8833 34.3748 19.4792 34.3748ZM27.5 42.3956C28.0958 42.3956 28.6917 42.1436 29.1271 41.7311C29.5396 41.2956 29.7917 40.6998 29.7917 40.104C29.7917 39.5081 29.5396 38.9123 29.1271 38.4769C28.2792 37.629 26.7208 37.629 25.8729 38.4769C25.4604 38.9123 25.2083 39.5081 25.2083 40.104C25.2083 40.6998 25.4604 41.2956 25.8729 41.7311C26.3083 42.1436 26.9042 42.3956 27.5 42.3956ZM28.7833 33.9852L29.1271 33.7102C29.5396 33.2748 29.7917 32.679 29.7917 32.0831C29.7917 31.4873 29.5396 30.8915 29.1271 30.4561C28.4854 29.8144 27.4771 29.6081 26.6292 29.9748C26.3313 30.0894 26.0792 30.2498 25.8729 30.4561C25.4604 30.8915 25.2083 31.4873 25.2083 32.0831C25.2083 32.679 25.4604 33.2748 25.8729 33.7102C26.3083 34.1227 26.9042 34.3748 27.5 34.3748C27.6424 34.3748 27.7667 34.3568 27.905 34.3367C27.9225 34.3341 27.9403 34.3316 27.9583 34.329C28.0958 34.3061 28.2333 34.2602 28.3708 34.1915C28.5083 34.1456 28.6458 34.0769 28.7833 33.9852ZM35.5208 42.3956C36.1167 42.3956 36.7125 42.1436 37.1479 41.7311C37.5604 41.2956 37.8125 40.6998 37.8125 40.104C37.8125 39.5081 37.5604 38.9123 37.1479 38.4769C36.3 37.629 34.7417 37.629 33.8938 38.4769C33.4813 38.9123 33.2292 39.5081 33.2292 40.104C33.2292 40.6998 33.4813 41.2956 33.8938 41.7311C34.3292 42.1436 34.925 42.3956 35.5208 42.3956ZM36.8042 33.9852L37.1479 33.7102C37.5604 33.2748 37.8125 32.679 37.8125 32.0831C37.8125 31.4873 37.5604 30.8915 37.1479 30.4561L36.8042 30.1811C36.6667 30.0894 36.5292 30.0206 36.3917 29.9748C36.2542 29.9061 36.1167 29.8602 35.9792 29.8373C35.5208 29.7456 35.0625 29.7915 34.65 29.9748C34.3521 30.0894 34.1229 30.2498 33.8938 30.4561C33.4813 30.8915 33.2292 31.4873 33.2292 32.0831C33.2292 32.679 33.4813 33.2748 33.8938 33.7102C34.3292 34.1227 34.925 34.3748 35.5208 34.3748C35.6583 34.3748 35.8187 34.3519 35.9791 34.329L35.9792 34.329C36.1167 34.3061 36.2542 34.2602 36.3917 34.1915C36.5292 34.1456 36.6667 34.0769 36.8042 33.9852Z" fill="url(#paint0_linear_298_462)"/>
<defs>
<linearGradient id="paint0_linear_298_462" x1="27.5" y1="2.86475" x2="27.5" y2="50.4165" gradientUnits="userSpaceOnUse">
<stop stop-color="#EF4C23"/>
<stop offset="1" stop-color="#EF4C23" stop-opacity="0"/>
</linearGradient>
</defs>
</svg>
