<svg width="55" height="55" viewBox="0 0 55 55" fill="none" xmlns="http://www.w3.org/2000/svg">
<path fill-rule="evenodd" clip-rule="evenodd" d="M38.8003 5.85283C43.5227 7.71323 47.2868 11.4773 49.1472 16.1998C50.5389 19.7325 47.3387 22.9167 43.5417 22.9167H34.375C33.1094 22.9167 32.0834 21.8906 32.0834 20.625V11.4583C32.0834 7.66137 35.2676 4.46113 38.8003 5.85283ZM17.4559 8.77663C16.3475 9.27301 15.2778 9.86343 14.259 10.5442C10.6788 12.9364 7.88837 16.3365 6.24059 20.3146C4.59281 24.2927 4.16167 28.6701 5.0017 32.8932C5.84174 37.1164 7.91521 40.9955 10.9599 44.0403C14.0046 47.085 17.8838 49.1584 22.1069 49.9985C26.3301 50.8385 30.7075 50.4074 34.6856 48.7596C38.6637 47.1118 42.0638 44.3214 44.456 40.7412C45.1367 39.7224 45.7272 38.6527 46.2235 37.5443C47.6315 34.4004 48.3354 32.8284 46.9806 30.7372C45.6258 28.6459 43.4033 28.6459 38.9584 28.6459H35.5209H35.5209C31.1997 28.6459 29.0391 28.6459 27.6966 27.3035C26.3542 25.9611 26.3542 23.8005 26.3542 19.4793V16.0418C26.3542 11.5969 26.3542 9.37441 24.263 8.01957C22.1717 6.66472 20.5998 7.36869 17.4559 8.77663L17.4559 8.77663Z" fill="url(#paint0_linear_298_448)"/>
<defs>
<linearGradient id="paint0_linear_298_448" x1="27.0312" y1="5.521" x2="27.0312" y2="50.4168" gradientUnits="userSpaceOnUse">
<stop stop-color="#EF4C23"/>
<stop offset="1" stop-color="#EF4C23" stop-opacity="0"/>
</linearGradient>
</defs>
</svg>
