<svg width="55" height="55" viewBox="0 0 55 55" fill="none" xmlns="http://www.w3.org/2000/svg">
<path d="M41.6667 7H14.1667C9.10208 7 5 11.0792 5 16.0979V39.1521C5 44.1708 9.10208 48.25 14.1667 48.25H41.6667C46.7313 48.25 50.8333 44.1708 50.8333 39.1521V16.0979C50.8333 11.0792 46.7313 7 41.6667 7ZM19.8958 16.5563C22.8063 16.5563 25.1896 18.9396 25.1896 21.85C25.1896 24.7604 22.8063 27.1438 19.8958 27.1438C16.9854 27.1438 14.6021 24.7604 14.6021 21.85C14.6021 18.9396 16.9854 16.5563 19.8958 16.5563ZM28.7646 38.3042C28.5583 38.5333 28.2375 38.6708 27.9167 38.6708H11.875C11.5542 38.6708 11.2333 38.5333 11.0271 38.3042C10.8208 38.075 10.7063 37.7542 10.7292 37.4333C11.1188 33.5833 14.1896 30.5354 18.0396 30.1688C19.2542 30.0542 20.5146 30.0542 21.7292 30.1688C25.5792 30.5354 28.6729 33.5833 29.0396 37.4333C29.0854 37.7542 28.9708 38.075 28.7646 38.3042ZM43.2812 34.6979H38.6979C37.7583 34.6979 36.9792 33.9187 36.9792 32.9792C36.9792 32.0396 37.7583 31.2604 38.6979 31.2604H43.2812C44.2208 31.2604 45 32.0396 45 32.9792C45 33.9187 44.2208 34.6979 43.2812 34.6979ZM43.2812 28.6042H34.1146C33.175 28.6042 32.3958 27.825 32.3958 26.8854C32.3958 25.9458 33.175 25.1667 34.1146 25.1667H43.2812C44.2208 25.1667 45 25.9458 45 26.8854C45 27.825 44.2208 28.6042 43.2812 28.6042ZM43.2812 22.4375H31.8229C30.8833 22.4375 30.1042 21.6583 30.1042 20.7188C30.1042 19.7792 30.8833 19 31.8229 19H43.2812C44.2208 19 45 19.7792 45 20.7188C45 21.6583 44.2208 22.4375 43.2812 22.4375Z" fill="url(#paint0_linear_298_470)"/>
<defs>
<linearGradient id="paint0_linear_298_470" x1="26.8333" y1="8.375" x2="26.8333" y2="49.625" gradientUnits="userSpaceOnUse">
<stop stop-color="#EF4C23"/>
<stop offset="1" stop-color="#EF4C23" stop-opacity="0"/>
</linearGradient>
</defs>
</svg>
