<svg width="55" height="55" viewBox="0 0 55 55" fill="none" xmlns="http://www.w3.org/2000/svg">
<path fill-rule="evenodd" clip-rule="evenodd" d="M22.2419 3.04788C23.6049 2.86463 25.3219 2.86468 27.3809 2.86475H27.6193C29.6783 2.86468 31.3952 2.86463 32.7582 3.04788C34.1969 3.24131 35.4958 3.66681 36.5396 4.71059C37.5834 5.75438 38.0089 7.05329 38.2023 8.49199C38.3856 9.85501 38.3855 11.572 38.3855 13.631L38.3855 13.8091C43.0173 13.9607 45.7987 14.5019 47.7319 16.435C50.4167 19.1199 50.4167 23.4411 50.4167 32.0835C50.4167 40.7259 50.4167 45.0471 47.7319 47.732C45.047 50.4168 40.7258 50.4168 32.0834 50.4168H22.9167C14.2743 50.4168 9.95308 50.4168 7.26823 47.732C4.58337 45.0471 4.58337 40.7259 4.58337 32.0835C4.58337 23.4411 4.58337 19.1199 7.26823 16.435C9.20134 14.5019 11.9828 13.9607 16.6146 13.8091L16.6146 13.631C16.6146 11.572 16.6145 9.85503 16.7978 8.49199C16.9912 7.05329 17.4167 5.75438 18.4605 4.71059C19.5042 3.66681 20.8032 3.24131 22.2419 3.04788ZM34.948 13.7502V13.7545C34.0496 13.7502 33.0961 13.7502 32.0834 13.7502H22.9167C21.9039 13.7502 20.9505 13.7502 20.0521 13.7545V13.7502C20.0521 11.541 20.0558 10.057 20.2046 8.95003C20.3468 7.89251 20.5925 7.43991 20.8911 7.14127C21.1898 6.84263 21.6424 6.59691 22.6999 6.45473C23.8069 6.3059 25.2908 6.30225 27.5 6.30225C29.7092 6.30225 31.1932 6.3059 32.3002 6.45473C33.3577 6.59691 33.8103 6.84263 34.1089 7.14127C34.4076 7.43991 34.6533 7.89251 34.7955 8.95003C34.9443 10.057 34.948 11.541 34.948 13.7502ZM27.5 41.2502C32.5627 41.2502 36.6667 37.1461 36.6667 32.0835C36.6667 27.0209 32.5627 22.9168 27.5 22.9168C22.4374 22.9168 18.3334 27.0209 18.3334 32.0835C18.3334 37.1461 22.4374 41.2502 27.5 41.2502ZM29.2188 28.646C29.2188 27.6968 28.4492 26.9272 27.5 26.9272C26.5508 26.9272 25.7812 27.6968 25.7812 28.646V30.3647H24.0625C23.1133 30.3647 22.3438 31.1343 22.3438 32.0835C22.3438 33.0327 23.1133 33.8022 24.0625 33.8022H25.7812V35.521C25.7812 36.4702 26.5508 37.2397 27.5 37.2397C28.4492 37.2397 29.2188 36.4702 29.2188 35.521V33.8022H30.9375C31.8867 33.8022 32.6562 33.0327 32.6562 32.0835C32.6562 31.1343 31.8867 30.3647 30.9375 30.3647H29.2188V28.646Z" fill="url(#paint0_linear_298_440)"/>
<defs>
<linearGradient id="paint0_linear_298_440" x1="27.5" y1="2.86475" x2="27.5" y2="50.4168" gradientUnits="userSpaceOnUse">
<stop stop-color="#EF4C23"/>
<stop offset="1" stop-color="#EF4C23" stop-opacity="0"/>
</linearGradient>
</defs>
</svg>
