<svg xmlns="http://www.w3.org/2000/svg" xmlns:xlink="http://www.w3.org/1999/xlink" viewBox="0 0 403 490" width="403" height="490" preserveAspectRatio="xMidYMid meet" style="width: 100%; height: 100%; transform: translate3d(0px, 0px, 0px); content-visibility: visible;"><defs><clipPath id="__lottie_element_2"><rect width="403" height="490" x="0" y="0"></rect></clipPath></defs><g clip-path="url(#__lottie_element_2)"><g transform="matrix(1,0,0,1,203,180)" opacity="1" style="display: block;"><g opacity="1" transform="matrix(1,0,0,1,16,62.5)"><path stroke-linecap="butt" stroke-linejoin="miter" fill-opacity="0" stroke-miterlimit="4" stroke="rgb(46,53,39)" stroke-opacity="1" stroke-width="65" d="M0 0"></path></g></g><g transform="matrix(1,0,0,1,203,180)" opacity="1" style="display: block;"><g opacity="1" transform="matrix(1,0,0,1,16,62.5)"><path stroke-linecap="butt" stroke-linejoin="miter" fill-opacity="0" stroke-miterlimit="4" stroke="rgb(46,53,39)" stroke-opacity="1" stroke-width="65" d="M0 0"></path></g></g><g transform="matrix(1,0,0,1,203,180)" opacity="1" style="display: block;"><g opacity="1" transform="matrix(1,0,0,1,16,62.5)"><path stroke-linecap="butt" stroke-linejoin="miter" fill-opacity="0" stroke-miterlimit="4" stroke="rgb(239,76,35)" stroke-opacity="1" stroke-width="65" d=" M0,131.5 C0,131.5 0,131.5 0,131.5 C-72.5748519897461,131.5 -131.5,72.5748519897461 -131.5,0 C-131.5,-72.5748519897461 -72.5748519897461,-131.5 0,-131.5"></path></g></g><g transform="matrix(1,0,0,1,202.93800354003906,245)" opacity="1" style="display: block;"><g opacity="1" transform="matrix(1,0,0,1,16,62.5)"><path stroke-linecap="butt" stroke-linejoin="miter" fill-opacity="0" stroke-miterlimit="4" stroke="rgb(46,53,39)" stroke-opacity="1" stroke-width="65" d="M0 0"></path></g></g><g transform="matrix(1,0,0,1,202.93800354003906,245)" opacity="1" style="display: block;"><g opacity="1" transform="matrix(1,0,0,1,16,62.5)"><path stroke-linecap="butt" stroke-linejoin="miter" fill-opacity="0" stroke-miterlimit="4" stroke="rgb(239,76,35)" stroke-opacity="1" stroke-width="65" d=" M0,66.5 C0,66.5 0,66.5 0,66.5 C-36.701351165771484,66.5 -66.5,36.701351165771484 -66.5,0 C-66.5,-36.701351165771484 -36.701351165771484,-66.5 0,-66.5"></path></g></g><g transform="matrix(-1,0,0,1,234.906005859375,212.625)" opacity="1" style="display: block;"><g opacity="1" transform="matrix(1,0,0,1,16,62.5)"><path stroke-linecap="butt" stroke-linejoin="miter" fill-opacity="0" stroke-miterlimit="4" stroke="rgb(46,53,39)" stroke-opacity="1" stroke-width="65" d="M0 0"></path></g></g><g transform="matrix(-1,0,0,1,234.906005859375,212.625)" opacity="1" style="display: block;"><g opacity="1" transform="matrix(1,0,0,1,16,62.5)"><path stroke-linecap="butt" stroke-linejoin="miter" fill-opacity="0" stroke-miterlimit="4" stroke="rgb(239,76,35)" stroke-opacity="1" stroke-width="65" d=" M0.019999999552965164,98.9020004272461 C-54.65599822998047,98.9020004272461 -99,54.67599868774414 -99,0 C-99,-54.67599868774414 -54.67599868774414,-99 0,-99"></path></g></g></g></svg>